# xmcd
#
# Track frame offsets:
#	150
#	20740
#	37890
#	53380
#	72490
#	91673
#	109292
#	125540
#	141900
#	160488
#	174800
#	190480
#	204563
#
# Disc length: 2882 seconds
#
# Revision: 1
# Processed by: cddbd v1.5.1PL0 Copyright (c) Steve Scherf et al.
# Submitted via: EasyCDDAExtractor 7.0.9.1
#
DISCID=b20b400d
DTITLE=Various Artist - Forro de Itaunas Vol.01
DYEAR=2001
DGENRE=Forró
TTITLE0=Trio Lubiao - Pass'o Preto
TTITLE1=Corindó - Osmarim Salgado Doce
TTITLE2=Forró de Saia - Vem Cá
TTITLE3=Forró Mandachuva - Saudades de Itaúnas
TTITLE4=Forró Mandachuva - Terrinha
TTITLE5=Xote de Colo - Lembrança da Casinha
TTITLE6=Trio Jerimum - Jerimum em Itaúnas
TTITLE7=Banda Cataia - Vento dos Sonhos
TTITLE8=Banda Bagana - Recomeço
TTITLE9=Banda Karalarga - Xote de Itaúnas
TTITLE10=Cipó Cravo - Te Encontrar
TTITLE11=Trio Girassol - Da cor Brasileira
TTITLE12=Banda Pizindim - Vida Seca
EXTD=
EXTT0=
EXTT1=
EXTT2=
EXTT3=
EXTT4=
EXTT5=
EXTT6=
EXTT7=
EXTT8=
EXTT9=
EXTT10=
EXTT11=
EXTT12=
PLAYORDER=
